<svg id="Layer_1" data-name="Layer 1" xmlns="http://www.w3.org/2000/svg" viewBox="0 0 429.25 90"><defs><style>.cls-1{fill:#f63440;fill-rule:evenodd;}</style></defs><path class="cls-1" d="M364.2,156.29h-15a1.37,1.37,0,0,0-1.29,1.28v32.7h-15v-32.7a1.37,1.37,0,0,0-1.29-1.28h-15a1.37,1.37,0,0,0-1.29,1.28v83.92a1.37,1.37,0,0,0,1.29,1.29h15a1.37,1.37,0,0,0,1.29-1.29V207.94h15v33.55a1.37,1.37,0,0,0,1.29,1.29h15a1.37,1.37,0,0,0,1.29-1.29V157.57a1.37,1.37,0,0,0-1.29-1.28m-126.63,0h-15a1.14,1.14,0,0,0-1.29,1.28V217a10.94,10.94,0,0,1-2.14,6.86c-1.29,1.72-3,2.15-5.15,2.15a7.24,7.24,0,0,1-5.16-2.15,10.94,10.94,0,0,1-2.14-6.86V157.57a1.37,1.37,0,0,0-1.29-1.28h-15a1.14,1.14,0,0,0-1.29,1.28v59.89c0,7.72,1.72,15,6.44,19.81a25.64,25.64,0,0,0,18.53,7.3c7.72,0,14.23-2.58,18.53-7.3,4.72-4.72,6.43-11.59,6.43-19.81V157.57a1.53,1.53,0,0,0-1.43-1.28M90.34,155c-7.73,0-14.24,2.57-18.53,7.3-4.72,4.72-6.44,11.59-6.44,19.81v35.77c0,7.73,1.72,15,6.44,19.82A25.64,25.64,0,0,0,90.34,245c7.73,0,14.24-2.58,18.53-7.3,4.72-4.72,6.44-11.59,6.44-19.82V198.14a1.85,1.85,0,0,0-1.72-1.72h-22a1.85,1.85,0,0,0-1.72,1.72V212.8a1.85,1.85,0,0,0,1.72,1.72h5.65V218a12.09,12.09,0,0,1-2.15,7.3c-1.28,1.72-3,2.15-5.15,2.15a7.24,7.24,0,0,1-5.15-2.15,12.27,12.27,0,0,1-2.14-7.3V182.61a12.08,12.08,0,0,1,2.14-7.29c1.29-1.72,3-2.15,5.15-2.15a7.2,7.2,0,0,1,5.15,2.15,12.23,12.23,0,0,1,2.15,7.29v3.44a1.36,1.36,0,0,0,1.29,1.28h15a1.13,1.13,0,0,0,1.29-1.28v-3.44c0-7.72-1.72-15-6.44-19.81-3.86-5.23-10.8-7.8-18.1-7.8m193.74,68.46c-1.29,1.72-3,2.15-5.66,2.15h-8.58V207.44h8.58a7.15,7.15,0,0,1,5.16,2.14,10.61,10.61,0,0,1,2.14,6.44c.14,3.58-.28,5.65-1.64,7.44ZM269.84,174h7.73c2.14,0,3.86.43,5.15,2.14,1.29,1.29,1.71,3.44,1.71,6.08s-.42,4.73-1.71,6.44a6.9,6.9,0,0,1-4.72,2.15h-7.73V174Zm25,24.54c2.57-2.58,7.29-8.59,7.29-16.39,0-9.08-3.43-14.66-6.08-17.67-4.72-5.15-11.16-7.73-18.53-7.73H254a1.37,1.37,0,0,0-1.29,1.29v84a1.37,1.37,0,0,0,1.29,1.29h25c7.72,0,15-3,19.81-9.09a28.48,28.48,0,0,0,5.65-17.67c-.5-10.3-6.94-16.38-9.58-18ZM158,190.27c-1.29,1.72-3.44,2.57-6.08,2.57h-7.3V174h7.3a7.47,7.47,0,0,1,6.08,2.57c1.71,1.72,2.14,3.87,2.14,6.87s-.35,5.15-2.14,6.87Zm9.51,15.52a18.22,18.22,0,0,0,4.3-3.86,28,28,0,0,0,6.86-19c0-9.08-3.43-15-6.86-18.53-4.3-5.15-10.74-7.72-18.1-8.15h-25a1.37,1.37,0,0,0-1.29,1.28v83.92a1.37,1.37,0,0,0,1.29,1.29h15a1.37,1.37,0,0,0,1.29-1.29V210.44h5.15l9.52,31.84c0,.43.85.86,1.28.86h15.89l1.28-.43c.43,0,.43-.86.43-1.29l-11.09-35.63ZM474,223.46c-1.29,1.72-3,2.15-5.65,2.15h-8.59V207.44h8.59a7.15,7.15,0,0,1,5.15,2.14,10.55,10.55,0,0,1,2.14,6.44c.5,3.58-.28,5.66-1.64,7.44ZM460.14,174h7.73c2.14,0,3.86.43,5.15,2.14,1.29,1.29,1.72,3.44,1.72,6.08s-.43,4.73-1.72,6.44a6.9,6.9,0,0,1-4.72,2.15h-7.73V174Zm25,24.54c2.57-2.58,7.3-8.59,7.3-16.39,0-9.08-3.44-14.66-6.09-17.67-4.72-5.15-11.16-7.72-18.52-7.72H444a1.35,1.35,0,0,0-1.28,1.28v84a1.36,1.36,0,0,0,1.28,1.29h25.11c7.73,0,15-3,19.82-9.08a28.53,28.53,0,0,0,5.65-17.68,25.74,25.74,0,0,0-9.51-18Zm-57.66-42.21h-15a1.14,1.14,0,0,0-1.29,1.28V217a10.94,10.94,0,0,1-2.14,6.86c-1.29,1.72-3,2.15-5.15,2.15a7.2,7.2,0,0,1-5.15-2.15,10.88,10.88,0,0,1-2.15-6.86V157.57a1.37,1.37,0,0,0-1.29-1.28H380.16a1.14,1.14,0,0,0-1.29,1.28v59.89c0,7.72,1.72,15,6.44,19.81a25.64,25.64,0,0,0,18.53,7.3c7.72,0,14.23-2.58,18.53-7.3,4.72-4.72,6.43-11.59,6.43-19.81V157.57c.43-.42-.42-1.28-1.35-1.28" transform="translate(-65.37 -155)"/></svg>