<?xml version="1.0" encoding="UTF-8" standalone="no"?>
<svg
   xmlns:dc="http://purl.org/dc/elements/1.1/"
   xmlns:cc="http://creativecommons.org/ns#"
   xmlns:rdf="http://www.w3.org/1999/02/22-rdf-syntax-ns#"
   xmlns:svg="http://www.w3.org/2000/svg"
   xmlns="http://www.w3.org/2000/svg"
   xmlns:xlink="http://www.w3.org/1999/xlink"
   xmlns:sodipodi="http://sodipodi.sourceforge.net/DTD/sodipodi-0.dtd"
   xmlns:inkscape="http://www.inkscape.org/namespaces/inkscape"
   width="1000"
   height="270.86203"
   viewBox="0 0 1000 270.86203"
   version="1.1"
   id="svg30"
   sodipodi:docname="image.svg"
   style="fill:none"
   inkscape:version="0.92.4 (5da689c313, 2019-01-14)">
  <metadata
     id="metadata34">
    <rdf:RDF>
      <cc:Work
         rdf:about="">
        <dc:format>image/svg+xml</dc:format>
        <dc:type
           rdf:resource="http://purl.org/dc/dcmitype/StillImage" />
        <dc:title></dc:title>
      </cc:Work>
    </rdf:RDF>
  </metadata>
  <sodipodi:namedview
     pagecolor="#ffffff"
     bordercolor="#111111"
     borderopacity="1"
     objecttolerance="10"
     gridtolerance="10"
     guidetolerance="10"
     inkscape:pageopacity="0"
     inkscape:pageshadow="2"
     inkscape:window-width="1920"
     inkscape:window-height="1017"
     id="namedview32"
     showgrid="false"
     fit-margin-top="0"
     fit-margin-left="0"
     fit-margin-right="0"
     fit-margin-bottom="0"
     inkscape:zoom="0.31628695"
     inkscape:cx="1148.3314"
     inkscape:cy="-275.97807"
     inkscape:window-x="1912"
     inkscape:window-y="-8"
     inkscape:window-maximized="1"
     inkscape:current-layer="svg30" />
  <path
     d="M 0,69.963056 V 201.03144 c 0,3.54288 4.375902,5.62634 7.0847689,3.12575 L 84.183839,135.60153 7.0847689,67.045876 C 4.375902,64.336716 0,66.212166 0,69.963056 Z"
     id="path2"
     style="fill:url(#linearGradient69);fill-opacity:1;stroke-width:5.41723537"
     inkscape:connector-curvature="0" />
  <path
     d="M 232.96496,3.0741762 84.183839,135.39297 233.17298,267.92076 c 7.50179,6.66807 19.58764,1.2503 19.58764,-8.75209 V 11.825986 C 252.55206,1.6155462 240.46621,-3.8022438 232.96496,3.0741762 Z"
     id="path4"
     style="fill:url(#linearGradient61);fill-opacity:1;stroke-width:5.41723537"
     inkscape:connector-curvature="0" />
  <path
     d="m 398.62456,135.39297 80.01636,-69.389374 c 2.29204,-1.8749 0.83317,-5.6258 -2.08401,-5.6258 h -33.75696 c -3.33376,0 -6.66807,1.2503 -9.16813,3.33377 L 378.82836,110.80468 V 65.587016 c 0,-2.91718 -2.29203,-5.20922 -5.20921,-5.20922 h -21.25453 c -2.91718,0 -5.20921,2.29204 -5.20921,5.20922 V 205.19946 c 0,2.91719 2.29203,5.20922 5.20921,5.20922 h 21.25453 c 2.91718,0 5.20921,-2.29203 5.20921,-5.20922 V 159.9818 l 54.80346,47.09257 c 2.50006,2.29257 5.83437,3.33431 9.16813,3.33431 h 33.75696 c 2.91718,0 4.37605,-3.54233 2.08401,-5.62634 z"
     id="path6"
     style="fill:#6a35f9;fill-opacity:1;stroke-width:5.41723537"
     inkscape:connector-curvature="0" />
  <path
     d="M 584.49804,178.73519 H 547.61208 V 65.587016 c 0,-2.91718 -2.29149,-5.20922 -5.20596,-5.20922 h -21.46417 c -2.91718,0 -5.20976,2.29204 -5.20976,5.20922 V 183.73638 204.9909 c 0,2.91718 2.29258,5.20922 5.20976,5.20922 h 21.2529 42.09192 c 2.91989,0 5.21138,-2.29204 5.21138,-5.20922 v -21.04596 c 0,-2.91718 -2.29149,-5.20975 -5.00011,-5.20975 z"
     id="path8"
     style="fill:#6a35f9;fill-opacity:1;stroke-width:5.41723537"
     inkscape:connector-curvature="0" />
  <path
     d="m 742.02583,92.050746 c 2.91989,0 5.21138,-2.29203 5.21138,-5.20921 v -21.25452 c 0,-2.91718 -2.29149,-5.20922 -5.21138,-5.20922 H 636.59018 c -2.91989,0 -5.21139,2.29204 -5.21139,5.20922 v 21.25452 37.715874 21.25453 37.71642 21.25398 c 0,2.91718 2.2915,5.20975 5.21139,5.20975 h 21.25181 83.97798 c 2.91448,0 5.21138,-2.29257 5.21138,-5.20975 v -20.8374 c 0,-2.91718 -2.2969,-5.20975 -5.21138,-5.20975 h -78.97245 v -27.50548 h 47.71501 c 2.91989,0 5.21138,-2.29203 5.21138,-5.20921 v -21.25452 c 0,-2.91718 -2.29149,-5.20921 -5.21138,-5.20921 H 663.05337 V 92.050746 Z"
     id="path10"
     style="fill:#6a35f9;fill-opacity:1;stroke-width:5.41723537"
     inkscape:connector-curvature="0" />
  <path
     d="M 994.78862,60.586366 H 973.5368 810.58636 789.32913 c -2.91447,0 -5.20596,2.29203 -5.20596,5.20921 v 21.25452 96.894844 21.25452 c 0,2.91719 2.29149,5.20922 5.20596,5.20922 h 205.45949 c 2.91989,0 5.21138,-2.29203 5.21138,-5.20922 V 183.94494 87.050096 65.587016 c 0,-2.70862 -2.29149,-5.00065 -5.21138,-5.00065 z m -178.9963,31.46438 h 152.5331 v 86.684984 h -152.5331 z"
     id="path12"
     style="fill:#6a35f9;fill-opacity:1;stroke-width:5.41723537"
     inkscape:connector-curvature="0" />
  <defs
     id="defs28">
    <linearGradient
       inkscape:collect="always"
       id="linearGradient59">
      <stop
         style="stop-color:#641b90;stop-opacity:1"
         offset="0"
         id="stop55" />
      <stop
         id="stop63"
         offset="0.25"
         style="stop-color:#6526b2;stop-opacity:1" />
      <stop
         style="stop-color:#672fdb;stop-opacity:1"
         offset="0.5"
         id="stop65" />
      <stop
         id="stop67"
         offset="0.75"
         style="stop-color:#6833f5;stop-opacity:1" />
      <stop
         style="stop-color:#6a32ff;stop-opacity:1"
         offset="1"
         id="stop57" />
    </linearGradient>
    <linearGradient
       id="paint0_linear_20000836_3496"
       x1="0"
       y1="25.001101"
       x2="15.5313"
       y2="25.001101"
       gradientUnits="userSpaceOnUse">
      <stop
         stop-color="white"
         id="stop14" />
      <stop
         offset="0.9104"
         stop-color="white"
         stop-opacity="0.0896271"
         id="stop16" />
      <stop
         offset="1"
         stop-color="white"
         stop-opacity="0"
         id="stop18" />
    </linearGradient>
    <linearGradient
       id="paint1_linear_20000836_3496"
       x1="46.839401"
       y1="25.0009"
       x2="15.7531"
       y2="25.0009"
       gradientUnits="userSpaceOnUse">
      <stop
         stop-color="white"
         id="stop21" />
      <stop
         offset="0.9104"
         stop-color="white"
         stop-opacity="0.0896271"
         id="stop23" />
      <stop
         offset="1"
         stop-color="white"
         stop-opacity="0"
         id="stop25" />
    </linearGradient>
    <linearGradient
       inkscape:collect="always"
       xlink:href="#linearGradient59"
       id="linearGradient61"
       x1="84.183838"
       y1="-85.469009"
       x2="252.34894"
       y2="-85.469009"
       gradientUnits="userSpaceOnUse"
       gradientTransform="translate(0,220.86198)" />
    <linearGradient
       inkscape:collect="always"
       xlink:href="#linearGradient59"
       id="linearGradient69"
       x1="84.183838"
       y1="-85.469009"
       x2="0.39521074"
       y2="-85.469009"
       gradientUnits="userSpaceOnUse"
       gradientTransform="translate(0,220.86198)" />
  </defs>
</svg>
